<svg width="47" height="48" viewBox="0 0 47 48" fill="none" xmlns="http://www.w3.org/2000/svg">
<path d="M13.3238 9.70547C14.8232 9.70547 16.0391 8.48953 16.0391 6.98935V2.71538C16.0391 1.21594 14.8232 0 13.3238 0C11.8235 0 10.6075 1.21594 10.6075 2.71538V6.98935C10.6075 8.48963 11.8235 9.70547 13.3238 9.70547Z" fill="#1C2121"/>
<path d="M33.3508 9.70547C34.8502 9.70547 36.0661 8.48953 36.0661 6.98935V2.71538C36.0662 1.21594 34.8503 0 33.3508 0C31.8505 0 30.6346 1.21594 30.6346 2.71538V6.98935C30.6346 8.48963 31.8506 9.70547 33.3508 9.70547Z" fill="#1C2121"/>
<path d="M40.1335 3.87067H38.4531V6.98936C38.4531 9.80345 36.1642 12.0923 33.3509 12.0923C30.5368 12.0923 28.248 9.80345 28.248 6.98936V3.87067H18.4258V6.98936C18.4258 9.80345 16.137 12.0923 13.3237 12.0923C10.5096 12.0923 8.22075 9.80345 8.22075 6.98936V3.87067H6.54028C2.92828 3.87067 0 6.79895 0 10.4109V41.4597C0 45.0717 2.92828 48 6.54028 48H40.1335C43.7455 48 46.6738 45.0717 46.6738 41.4597V10.4109C46.6738 6.79895 43.7454 3.87067 40.1335 3.87067ZM43.4915 41.4597C43.4915 43.3111 41.9849 44.8177 40.1335 44.8177H6.54028C4.68881 44.8177 3.18234 43.3111 3.18234 41.4597V14.5442H43.4915V41.4597Z" fill="#1C2121"/>
<path d="M21.8747 35.3973H16.5565V40.7155H21.8747V35.3973Z" fill="#1C2121"/>
<path d="M21.8747 27.1548H16.5565V32.4729H21.8747V27.1548Z" fill="#1C2121"/>
<path d="M13.6321 35.3973H8.31482V40.7155H13.6321V35.3973Z" fill="#1C2121"/>
<path d="M13.6321 27.1548H8.31482V32.4729H13.6321V27.1548Z" fill="#1C2121"/>
<path d="M38.3589 18.9122H33.0416V24.2303H38.3589V18.9122Z" fill="#1C2121"/>
<path d="M30.1179 18.9122H24.799V24.2303H30.1179V18.9122Z" fill="#1C2121"/>
<path d="M30.1179 27.1548H24.799V32.4729H30.1179V27.1548Z" fill="#1C2121"/>
<path d="M38.3589 35.3973H33.0416V40.7155H38.3589V35.3973Z" fill="#1C2121"/>
<path d="M38.3589 27.1548H33.0416V32.4729H38.3589V27.1548Z" fill="#1C2121"/>
<path d="M30.1179 35.3973H24.799V40.7155H30.1179V35.3973Z" fill="#1C2121"/>
<path d="M21.8747 18.9122H16.5565V24.2303H21.8747V18.9122Z" fill="#1C2121"/>
<path d="M13.6321 18.9122H8.31482V24.2303H13.6321V18.9122Z" fill="#1C2121"/>
</svg>
