<svg width="14" height="22" viewBox="0 0 14 22" fill="none" xmlns="http://www.w3.org/2000/svg">
<path d="M12.7955 10.3256L0.720538 0.894362C0.688986 0.869522 0.651066 0.854084 0.611136 0.849823C0.571205 0.845562 0.530882 0.852649 0.494798 0.870272C0.458714 0.887894 0.428333 0.915337 0.407142 0.949448C0.385952 0.983559 0.374812 1.02296 0.375002 1.06311V3.13365C0.375002 3.2649 0.43661 3.39079 0.538395 3.47115L10.1813 11.0006L0.538395 18.5301C0.433931 18.6104 0.375002 18.7363 0.375002 18.8676V20.9381C0.375002 21.1176 0.581252 21.2167 0.720538 21.1069L12.7955 11.6756C12.8982 11.5956 12.9812 11.4932 13.0383 11.3762C13.0954 11.2592 13.1251 11.1308 13.1251 11.0006C13.1251 10.8705 13.0954 10.742 13.0383 10.625C12.9812 10.5081 12.8982 10.4057 12.7955 10.3256Z" fill="#858585"/>
</svg>
