<svg width="64" height="48" viewBox="0 0 64 48" fill="none" xmlns="http://www.w3.org/2000/svg">
<path d="M56.1163 5.40975V1.04708C56.1163 0.771722 56.0039 0.502196 55.808 0.30638C55.6122 0.112426 55.3447 0 55.0673 0C55.0673 0 49.586 0 46.4333 0C45.9486 0 45.4096 0.0620455 44.8105 0.170625C43.7654 0.360608 42.54 0.701859 41.237 1.18271C39.2826 1.90591 37.1595 2.9355 35.2768 4.25781C34.3383 4.92095 33.4581 5.65383 32.6941 6.46626C32.3606 6.82103 32.0523 7.19331 31.7673 7.57724C31.1448 6.72995 30.3868 5.95624 29.553 5.25438C27.5637 3.583 25.1244 2.29171 22.8598 1.39789C21.7275 0.953888 20.6378 0.608791 19.6606 0.370288C19.1719 0.252029 18.7124 0.158961 18.2859 0.0969153C17.8574 0.0348698 17.4658 0 17.1012 0C15.5249 0 13.3668 0 11.6024 0C10.7182 0 9.93485 0 9.37259 0C8.81033 0 8.4671 0 8.46511 0C8.18976 0 7.92023 0.112426 7.7264 0.30638C7.53058 0.502196 7.41816 0.771722 7.41816 1.04708V5.40962H0V45.3824L28.9365 47.1275V48H31.7092C31.7112 48 31.7131 48 31.715 48H31.7673H31.8197C31.8216 48 31.8235 48 31.8255 48H34.5982V47.1275L63.5346 45.3825V5.40975H56.1163ZM27.2651 43.5444C25.7023 43.0926 23.9844 42.7281 22.3442 42.4508C20.702 42.1716 19.141 41.9854 17.8866 41.8924C15.4435 41.7179 11.6025 41.5608 8.35877 41.4484C6.34229 41.3766 4.56047 41.3243 3.49986 41.2952V8.84545C3.5289 8.84545 3.55992 8.84545 3.59094 8.84545C4.51195 8.84545 5.90015 8.84545 7.41841 8.84545V38.3985C7.41841 38.6777 7.53083 38.9452 7.72665 39.141C7.9206 39.3368 8.19 39.4474 8.46536 39.4474C8.46735 39.4474 8.81046 39.4474 9.37284 39.4474C11.0636 39.4474 14.7378 39.4474 17.1013 39.4474C17.4039 39.4454 17.8382 39.4901 18.3481 39.5832C19.2419 39.748 20.3704 40.0582 21.5725 40.5003C23.3796 41.1673 25.3611 42.1368 27.0518 43.3234C27.1759 43.4126 27.2962 43.4998 27.4144 43.5871C27.364 43.5734 27.3155 43.5561 27.2651 43.5444ZM30.7203 43.6937C30.3539 43.3156 29.9623 42.9511 29.5531 42.6059C27.5638 40.9345 25.1246 39.6432 22.8599 38.7513C21.7276 38.3053 20.6379 37.9602 19.6607 37.7237C19.1721 37.6034 18.7125 37.5142 18.286 37.4521C17.8576 37.3862 17.4659 37.3513 17.1013 37.3513C15.525 37.3513 13.367 37.3513 11.6025 37.3513C10.7901 37.3513 10.063 37.3513 9.5143 37.3513V2.09602C11.2594 2.09602 14.8017 2.09602 17.1013 2.09602C17.4039 2.09404 17.8382 2.13672 18.3481 2.22979C19.2419 2.39272 20.3704 2.70295 21.5725 3.14881C23.3796 3.8158 25.3611 4.78135 27.0518 5.97188C27.8973 6.56516 28.6689 7.21663 29.3126 7.90112C29.9001 8.52356 30.3771 9.17888 30.7203 9.84587V43.6937ZM32.8144 43.6957V9.85369C33.3534 8.79892 34.2337 7.77901 35.3311 6.85615C37.0742 5.38642 39.3427 4.17268 41.4425 3.34673C42.4896 2.93562 43.4979 2.6177 44.3665 2.40637C44.8008 2.29978 45.2021 2.22222 45.5532 2.16986C45.9042 2.11749 46.2046 2.09428 46.4335 2.09614C48.733 2.09614 52.2754 2.09614 54.0205 2.09614V37.3515C52.2754 37.3515 48.7331 37.3515 46.4335 37.3515C45.9488 37.3554 45.4097 37.4135 44.8106 37.5241C43.7655 37.7141 42.5401 38.0573 41.2372 38.5362C39.2827 39.2594 37.1597 40.291 35.277 41.6113C34.3849 42.2376 33.5511 42.9318 32.8144 43.6957ZM60.0348 41.2681C57.9543 41.2681 53.2467 41.2681 50.2316 41.2681C49.6849 41.2681 49.0237 41.3069 48.2675 41.3786C46.9432 41.5066 45.3281 41.7334 43.618 42.0321C41.0508 42.4819 38.2782 43.0947 35.9805 43.7927C35.905 43.816 35.8351 43.8372 35.7614 43.8586C37.4386 42.5478 39.5113 41.4582 41.4424 40.7001C42.4895 40.2871 43.4977 39.9691 44.3664 39.7597C44.8007 39.6531 45.202 39.5736 45.553 39.5232C45.904 39.4709 46.2045 39.4476 46.4333 39.4476C49.586 39.4476 55.0673 39.4476 55.0673 39.4476C55.3446 39.4476 55.6122 39.3371 55.808 39.1413C56.0039 38.9455 56.1163 38.6779 56.1163 38.3987V8.84545C57.6849 8.84545 59.1158 8.84545 60.0348 8.84545V41.2681Z" fill="#1C2121"/>
</svg>
