<svg width="49" height="48" viewBox="0 0 49 48" fill="none" xmlns="http://www.w3.org/2000/svg">
<path d="M15.5567 43.2667C15.5567 43.2667 15.6344 43.189 15.7294 43.094L34.0207 24.8027C34.1157 24.7077 34.201 24.6223 34.2103 24.613C34.2196 24.6037 34.305 24.5183 34.3999 24.4234L44.0914 14.7319C44.0931 14.7302 44.0931 14.7274 44.0914 14.7256L33.274 3.90843C33.2724 3.90674 33.2695 3.90674 33.2678 3.90843L23.5763 13.5999C23.4814 13.6949 23.396 13.7802 23.3867 13.7895C23.3774 13.7988 23.292 13.8842 23.197 13.9792L4.73396 32.4424C4.7334 32.443 4.73302 32.4435 4.73283 32.4443L0.000197524 47.9942C-0.000835659 47.9976 0.00235782 48.0008 0.00573914 47.9998L15.3231 43.3379C15.4515 43.2988 15.5567 43.2667 15.5567 43.2667ZM3.45028 44.5441L5.81336 36.7796C5.8143 36.7765 5.81833 36.7754 5.82068 36.7778L11.2221 42.1792C11.2244 42.1815 11.2234 42.1856 11.2202 42.1865L3.45573 44.5497C3.45234 44.5507 3.44915 44.5476 3.45028 44.5441Z" fill="#1C2121"/>
<path d="M47.1882 9.76382C48.3907 8.56119 48.3907 6.59344 47.1882 5.39082L42.6994 0.901901C41.4968 -0.300634 39.529 -0.300634 38.3264 0.901901L36.0851 3.14317C36.0834 3.14486 36.0834 3.14767 36.0851 3.14946L44.9406 12.005C44.9423 12.0067 44.9451 12.0067 44.9469 12.005L47.1882 9.76382Z" fill="#1C2121"/>
</svg>
